<!-- icon666.com - MILLIONS vector ICONS FREE --><svg viewBox="0 0 64 64" xmlns="http://www.w3.org/2000/svg"><g id="_18" data-name="18"><path d="m24 37h16a10 10 0 0 1 10 10v11a0 0 0 0 1 0 0h-36a0 0 0 0 1 0 0v-11a10 10 0 0 1 10-10z" fill="#af3737" style="fill: rgb(66, 153, 150);"></path><path d="m40 36h-1.38a12 12 0 0 0 5.38-10v-2a12 12 0 0 0 -3.12-8l1.67-1.12a1 1 0 1 0 -1.1-1.66l-1.45 1v-2.22a1 1 0 0 0 -2 0v1.62a12 12 0 0 0 -18 10.38v2a12 12 0 0 0 5.38 10h-1.38a11 11 0 0 0 -11 11v11a1 1 0 0 0 2 0v-11a9 9 0 0 1 9-9h3.55a4.48 4.48 0 0 0 8.9 0h3.55a9 9 0 0 1 9 9v11a1 1 0 0 0 2 0v-11a11 11 0 0 0 -11-11z" fill="#000000"></path><path d="m39.59 17.5a10.09 10.09 0 0 1 2.21 4.5 13.24 13.24 0 0 1 -4.74-1 13.52 13.52 0 0 0 2.53-3.5z" fill="#4f4f4f"></path><path d="m32 14a9.93 9.93 0 0 1 6 2.05 11.43 11.43 0 0 1 -15.77 5.67 10 10 0 0 1 9.77-7.72z" fill="#4f4f4f"></path><path d="m22 26v-2c0-.06 0-.11 0-.17a13.44 13.44 0 0 0 13.36-1.38 15 15 0 0 0 6.64 1.55v2a10 10 0 0 1 -20 0z" fill="#ffe0d4"></path><path d="m32 40a2.5 2.5 0 0 1 -2.45-2h4.9a2.5 2.5 0 0 1 -2.45 2z" fill="#ffe0d4"></path><path d="m21 47a1 1 0 0 0 -1 1v10a1 1 0 0 0 2 0v-10a1 1 0 0 0 -1-1z" fill="#000000"></path><path d="m43 47a1 1 0 0 0 -1 1v10a1 1 0 0 0 2 0v-10a1 1 0 0 0 -1-1z" fill="#000000"></path></g></svg>