<svg width="356" height="336" viewBox="0 0 356 336" fill="none" xmlns="http://www.w3.org/2000/svg">
<g clip-path="url(#clip0_9_2)">
<g filter="url(#filter0_i_9_2)">
<path d="M383.747 -44.1433L-18.8701 -46.3069L-20.9442 388.323L381.673 390.486L383.747 -44.1433Z" fill="white"/>
<path d="M259.881 247.967L85.6291 291.995C79.7183 293.481 73.4599 292.554 68.2269 289.417C62.9939 286.28 59.2136 281.189 57.7154 275.262L6.06064 69.919C4.57579 63.988 5.49615 57.7096 8.61982 52.4613C11.7435 47.2129 16.8154 43.4232 22.7228 41.9235L184.835 0.962769L226.188 19.7984L276.543 219.971C278.027 225.902 277.108 232.181 273.984 237.429C270.86 242.677 265.788 246.467 259.881 247.967Z" fill="#F2F2F2"/>
<path d="M24.3425 48.3616C20.1357 49.4295 16.524 52.1283 14.2995 55.8658C12.0751 59.6032 11.4196 64.0742 12.477 68.2978L64.1318 273.641C65.1987 277.862 67.8907 281.487 71.6173 283.721C75.3438 285.955 79.8006 286.615 84.0098 285.556L258.261 241.529C262.468 240.461 266.08 237.762 268.304 234.025C270.528 230.287 271.184 225.817 270.127 221.593L220.552 24.5211L184.21 7.96796L24.3425 48.3616Z" fill="white"/>
<path d="M225.742 20.8538L198.774 27.6677C196.805 28.1652 194.719 27.8575 192.976 26.8123C191.233 25.7672 189.974 24.0703 189.477 22.0948L184.449 2.1088C184.428 2.0213 184.43 1.92937 184.458 1.84353C184.486 1.7577 184.537 1.68145 184.606 1.62352C184.675 1.5656 184.759 1.52834 184.848 1.51601C184.937 1.5037 185.028 1.51682 185.11 1.55388L225.82 19.9506C225.911 19.9915 225.987 20.0597 226.037 20.1457C226.087 20.2317 226.11 20.3314 226.101 20.4306C226.093 20.5299 226.053 20.624 225.989 20.6998C225.924 20.7756 225.837 20.8295 225.742 20.8538Z" fill="#F2F2F2"/>
<path d="M210.736 195.894L131.402 215.94C130.914 216.063 130.407 216.089 129.91 216.015C129.413 215.942 128.934 215.771 128.502 215.512C128.071 215.253 127.694 214.912 127.394 214.507C127.094 214.103 126.876 213.642 126.753 213.154C126.63 212.664 126.604 212.156 126.677 211.657C126.75 211.158 126.92 210.678 127.178 210.245C127.435 209.813 127.776 209.435 128.179 209.134C128.582 208.833 129.041 208.615 129.528 208.492L208.862 188.446C209.349 188.323 209.856 188.297 210.354 188.371C210.851 188.444 211.33 188.615 211.761 188.874C212.192 189.133 212.569 189.474 212.869 189.879C213.17 190.284 213.388 190.744 213.51 191.233C213.633 191.722 213.659 192.23 213.586 192.73C213.514 193.228 213.343 193.708 213.086 194.141C212.828 194.574 212.488 194.952 212.084 195.252C211.681 195.553 211.224 195.772 210.736 195.894Z" fill="#CCCCCC"/>
<path d="M229.208 204.596L134.564 228.509C133.579 228.758 132.536 228.604 131.664 228.081C130.792 227.559 130.163 226.71 129.915 225.723C129.666 224.735 129.819 223.689 130.34 222.814C130.86 221.941 131.705 221.31 132.69 221.061L227.334 197.148C228.318 196.9 229.36 197.054 230.231 197.576C231.102 198.099 231.731 198.947 231.979 199.935C232.228 200.922 232.075 201.967 231.555 202.841C231.035 203.715 230.192 204.346 229.208 204.596Z" fill="#CCCCCC"/>
<path d="M98.944 240.422C106.416 240.462 112.503 234.417 112.538 226.921C112.574 219.423 106.546 213.314 99.0733 213.274C91.6015 213.234 85.515 219.278 85.4792 226.775C85.4434 234.272 91.4715 240.382 98.944 240.422Z" fill="#E6E6E6"/>
<path d="M202.48 160.326L97.1161 186.938C94.0713 187.703 90.8476 187.226 88.1519 185.609C85.4561 183.993 83.5089 181.37 82.7373 178.317L61.0944 92.2465C60.3297 89.1916 60.8041 85.9573 62.4136 83.2537C64.023 80.5501 66.6359 78.5981 69.6792 77.8258L175.043 51.2139C178.088 50.4484 181.312 50.9262 184.007 52.5424C186.703 54.1587 188.651 56.7813 189.422 59.835L211.065 145.905C211.829 148.961 211.355 152.194 209.746 154.898C208.137 157.601 205.523 159.554 202.48 160.326Z" fill="white"/>
<path d="M202.48 160.326L97.1161 186.938C94.0713 187.703 90.8476 187.226 88.1519 185.609C85.4561 183.993 83.5089 181.37 82.7373 178.317L61.0944 92.2465C60.3297 89.1916 60.8041 85.9573 62.4136 83.2537C64.023 80.5501 66.6359 78.5981 69.6792 77.8258L175.043 51.2139C178.088 50.4484 181.312 50.9262 184.007 52.5424C186.703 54.1587 188.651 56.7813 189.422 59.835L211.065 145.905C211.829 148.961 211.355 152.194 209.746 154.898C208.137 157.601 205.523 159.554 202.48 160.326ZM70.0201 79.1812C67.3348 79.8627 65.0293 81.5851 63.6092 83.9706C62.1892 86.3561 61.7705 89.2098 62.4452 91.906L84.0882 177.976C84.769 180.67 86.4875 182.984 88.8656 184.41C91.2438 185.836 94.0884 186.258 96.7755 185.583L202.14 158.971C204.825 158.289 207.13 156.567 208.55 154.181C209.971 151.796 210.389 148.942 209.714 146.246L188.072 60.1762C187.39 57.4817 185.672 55.1677 183.294 53.7416C180.916 52.3155 178.07 51.8938 175.384 52.5692L70.0201 79.1812Z" fill="#E6E6E6"/>
<path d="M169.566 80.0853L116.391 93.5161C115.926 93.6432 115.43 93.5896 115.003 93.3644C114.576 93.1392 114.25 92.7596 114.092 92.3028C114.018 92.064 113.994 91.8134 114.019 91.5645C114.046 91.3166 114.122 91.076 114.243 90.858C114.366 90.6404 114.53 90.45 114.728 90.2983C114.926 90.1466 115.152 90.0369 115.394 89.976L169.523 76.3043C171.702 77.4262 171.116 79.6938 169.566 80.0855L169.566 80.0853Z" fill="#F2F2F2"/>
<path d="M171.92 89.4446L118.744 102.875C118.279 103.003 117.783 102.949 117.357 102.723C116.93 102.498 116.604 102.119 116.445 101.662C116.372 101.423 116.347 101.172 116.373 100.923C116.399 100.676 116.475 100.435 116.598 100.217C116.719 100 116.884 99.8092 117.081 99.6576C117.279 99.5059 117.506 99.3961 117.747 99.3352L171.877 85.6636C174.055 86.7854 173.47 89.0531 171.919 89.4447L171.92 89.4446Z" fill="#F2F2F2"/>
<path d="M108.589 111.108L92.3598 115.206C91.83 115.34 91.2686 115.256 90.7997 114.976C90.3307 114.694 89.9918 114.237 89.8575 113.706L85.025 94.4896C84.8919 93.9574 84.9745 93.3944 85.2546 92.924C85.5347 92.4536 85.9894 92.1131 86.5191 91.9796L102.748 87.8802C103.278 87.747 103.839 87.8303 104.308 88.1117C104.778 88.3929 105.117 88.8493 105.251 89.3808L110.083 108.597C110.216 109.129 110.133 109.692 109.853 110.163C109.574 110.633 109.118 110.974 108.589 111.108Z" fill="#E6E6E6"/>
<path d="M176.584 108.647L95.4277 129.145C94.963 129.272 94.4667 129.217 94.0405 128.992C93.6135 128.767 93.2883 128.387 93.1291 127.931C93.0555 127.693 93.0307 127.441 93.0572 127.193C93.0829 126.944 93.159 126.705 93.2814 126.487C93.4029 126.269 93.5681 126.078 93.7658 125.926C93.9635 125.775 94.1894 125.665 94.4307 125.604L176.541 104.866C178.72 105.987 178.134 108.255 176.584 108.647Z" fill="#F2F2F2"/>
<path d="M178.938 118.009L97.7819 138.506C97.3172 138.634 96.8209 138.58 96.3947 138.355C95.9677 138.129 95.6425 137.75 95.4833 137.293C95.4097 137.054 95.3849 136.804 95.4114 136.555C95.4371 136.307 95.5133 136.066 95.6356 135.848C95.7571 135.63 95.9223 135.441 96.12 135.289C96.3177 135.137 96.5436 135.027 96.7849 134.967L178.895 114.227C181.074 115.35 180.489 117.617 178.938 118.009Z" fill="#F2F2F2"/>
<path d="M181.29 127.365L100.134 147.863C99.6697 147.99 99.1743 147.935 98.7472 147.71C98.3202 147.485 97.995 147.105 97.8358 146.649C97.7622 146.411 97.7374 146.159 97.7639 145.911C97.7896 145.662 97.8658 145.422 97.9882 145.205C98.1097 144.987 98.2748 144.796 98.4725 144.644C98.6702 144.493 98.8961 144.383 99.1375 144.322L181.248 123.584C183.426 124.705 182.841 126.973 181.29 127.365Z" fill="#F2F2F2"/>
<path d="M183.645 136.726L102.489 157.223C102.024 157.352 101.528 157.297 101.101 157.072C100.674 156.847 100.348 156.467 100.19 156.01C100.116 155.771 100.092 155.521 100.117 155.272C100.144 155.024 100.22 154.783 100.341 154.565C100.464 154.348 100.628 154.158 100.826 154.006C101.024 153.854 101.25 153.745 101.492 153.684L183.602 132.944C185.781 134.067 185.195 136.334 183.645 136.726Z" fill="#F2F2F2"/>
<path d="M185.997 146.082L104.841 166.58C104.376 166.708 103.881 166.653 103.454 166.428C103.027 166.203 102.702 165.823 102.543 165.366C102.469 165.129 102.444 164.877 102.471 164.629C102.496 164.38 102.573 164.14 102.695 163.923C102.816 163.705 102.982 163.514 103.179 163.362C103.377 163.211 103.603 163.101 103.844 163.04L185.954 142.301C188.133 143.423 187.548 145.691 185.997 146.082Z" fill="#F2F2F2"/>
<path d="M99.9846 231.611C99.6894 231.687 99.3779 231.663 99.0972 231.545L99.0792 231.538L95.4011 229.95C95.2308 229.877 95.0759 229.77 94.9467 229.637C94.8167 229.503 94.7148 229.345 94.6455 229.172C94.577 228.999 94.5428 228.814 94.5454 228.627C94.5479 228.441 94.5873 228.257 94.6609 228.086C94.7345 227.915 94.8406 227.76 94.9741 227.63C95.1068 227.5 95.2642 227.398 95.4371 227.329C95.61 227.261 95.7939 227.228 95.9805 227.23C96.1662 227.233 96.3493 227.273 96.5196 227.347L98.9029 228.379L102.068 221.01C102.141 220.838 102.247 220.684 102.381 220.554C102.513 220.425 102.671 220.322 102.843 220.254C103.016 220.185 103.2 220.152 103.385 220.154C103.57 220.157 103.753 220.196 103.924 220.27H103.925L103.906 220.318L103.925 220.27C104.269 220.42 104.54 220.699 104.679 221.048C104.816 221.398 104.811 221.788 104.663 222.133L100.94 230.797C100.853 230.997 100.722 231.174 100.557 231.315C100.391 231.456 100.196 231.557 99.9846 231.609V231.611Z" fill="white"/>
<path d="M326.261 326.468L146.547 325.503C140.452 325.463 134.621 323 130.333 318.653C126.044 314.307 123.648 308.432 123.671 302.317L124.68 90.5674C124.716 84.4532 127.169 78.6044 131.498 74.3041C135.829 70.0038 141.683 67.6033 147.778 67.6291L314.973 68.5276L350.343 97.1113L349.358 303.531C349.322 309.645 346.871 315.493 342.54 319.794C338.21 324.094 332.356 326.495 326.261 326.468Z" fill="#E6E6E6"/>
<path d="M147.746 74.2682C143.406 74.2497 139.237 75.9593 136.153 79.0216C133.07 82.0839 131.324 86.2489 131.298 90.603L130.287 302.353C130.272 306.707 131.978 310.891 135.032 313.987C138.086 317.081 142.238 318.836 146.579 318.864L326.293 319.829C330.633 319.848 334.802 318.138 337.886 315.076C340.969 312.014 342.715 307.849 342.741 303.495L343.71 100.274L312.626 75.1542L147.746 74.2682Z" fill="white"/>
<path d="M292.212 136.618L210.391 136.177C209.375 136.172 208.404 135.762 207.689 135.038C206.975 134.314 206.576 133.335 206.581 132.317C206.586 131.298 206.993 130.323 207.715 129.607C208.436 128.891 209.412 128.491 210.427 128.496L292.249 128.937C293.264 128.942 294.236 129.352 294.95 130.076C295.665 130.8 296.063 131.779 296.058 132.797C296.053 133.816 295.645 134.79 294.925 135.507C294.203 136.223 293.228 136.623 292.212 136.618Z" fill="#429996"/>
<path d="M307.94 149.663L210.328 149.139C209.314 149.132 208.344 148.722 207.631 147.998C206.917 147.274 206.519 146.295 206.525 145.278C206.529 144.26 206.936 143.287 207.657 142.57C208.376 141.854 209.351 141.454 210.365 141.458L307.977 141.983C308.48 141.985 308.978 142.086 309.442 142.281C309.907 142.477 310.328 142.762 310.682 143.121C311.036 143.479 311.316 143.904 311.507 144.371C311.698 144.839 311.794 145.339 311.792 145.844C311.789 146.349 311.687 146.847 311.493 147.313C311.298 147.778 311.013 148.201 310.655 148.555C310.298 148.91 309.874 149.19 309.409 149.381C308.942 149.571 308.443 149.667 307.94 149.663Z" fill="#429996"/>
<path d="M291.972 187.02L210.153 186.581C209.138 186.575 208.162 186.975 207.441 187.691C206.72 188.408 206.312 189.382 206.307 190.4C206.302 191.419 206.701 192.398 207.415 193.122C208.13 193.846 209.101 194.256 210.116 194.262L291.935 194.701C292.95 194.707 293.926 194.307 294.647 193.59C295.369 192.874 295.776 191.9 295.781 190.882C295.786 189.863 295.388 188.884 294.673 188.16C293.958 187.436 292.987 187.026 291.972 187.02Z" fill="#CCCCCC"/>
<path d="M307.701 200.069L210.091 199.545C209.076 199.539 208.101 199.938 207.379 200.655C206.658 201.371 206.25 202.346 206.246 203.364C206.24 204.382 206.639 205.361 207.354 206.085C208.067 206.81 209.04 207.219 210.055 207.225L307.664 207.75C308.679 207.755 309.655 207.356 310.376 206.639C311.098 205.923 311.506 204.948 311.51 203.93C311.515 202.911 311.117 201.932 310.403 201.209C309.688 200.484 308.716 200.074 307.701 200.069Z" fill="#CCCCCC"/>
<path d="M291.657 252.79L209.836 252.351C208.821 252.345 207.849 251.935 207.135 251.211C206.42 250.487 206.021 249.508 206.026 248.489C206.032 247.471 206.44 246.496 207.16 245.779C207.882 245.064 208.857 244.664 209.873 244.67L291.694 245.109C292.71 245.115 293.681 245.524 294.396 246.249C295.11 246.973 295.509 247.952 295.504 248.971C295.499 249.989 295.091 250.963 294.37 251.679C293.649 252.396 292.673 252.796 291.657 252.79Z" fill="#CCCCCC"/>
<path d="M307.386 265.836L209.775 265.312C208.76 265.305 207.789 264.894 207.076 264.171C206.363 263.447 205.965 262.469 205.97 261.451C205.975 260.434 206.382 259.459 207.102 258.743C207.823 258.027 208.797 257.627 209.811 257.631L307.422 258.155C307.925 258.158 308.423 258.259 308.887 258.454C309.352 258.649 309.773 258.934 310.127 259.293C310.482 259.652 310.762 260.077 310.952 260.544C311.143 261.011 311.24 261.512 311.237 262.016C311.235 262.521 311.134 263.021 310.939 263.486C310.743 263.951 310.459 264.373 310.102 264.728C309.744 265.083 309.319 265.363 308.854 265.554C308.388 265.743 307.889 265.84 307.386 265.836Z" fill="#CCCCCC"/>
<path d="M176.241 152.209C183.713 152.249 189.799 146.205 189.835 138.707C189.87 131.211 183.842 125.101 176.37 125.061C168.898 125.021 162.812 131.065 162.776 138.562C162.74 146.058 168.769 152.168 176.241 152.209Z" fill="#429996"/>
<path d="M174.94 143.805C174.636 143.804 174.34 143.704 174.097 143.519L174.082 143.508L170.914 141.051C170.767 140.937 170.644 140.795 170.551 140.633C170.459 140.472 170.399 140.293 170.375 140.108C170.352 139.923 170.365 139.735 170.414 139.555C170.462 139.376 170.545 139.208 170.659 139.06C170.773 138.912 170.915 138.789 171.076 138.697C171.238 138.605 171.416 138.546 171.6 138.522C171.785 138.498 171.971 138.512 172.151 138.562C172.33 138.611 172.497 138.695 172.645 138.81L174.696 140.405L179.593 134.061C179.707 133.915 179.848 133.792 180.009 133.699C180.17 133.607 180.348 133.547 180.532 133.524C180.716 133.501 180.903 133.514 181.082 133.563C181.26 133.612 181.428 133.696 181.575 133.81L181.575 133.811L181.545 133.852L181.576 133.811C181.872 134.041 182.065 134.38 182.112 134.752C182.159 135.126 182.057 135.502 181.828 135.798L176.068 143.257C175.934 143.429 175.764 143.567 175.568 143.663C175.373 143.757 175.158 143.806 174.941 143.804L174.94 143.805Z" fill="white"/>
<path d="M190.949 196.8C190.94 198.582 190.582 200.346 189.895 201.99C189.208 203.633 188.204 205.125 186.943 206.379C185.681 207.633 184.184 208.626 182.539 209.3C180.894 209.973 179.133 210.315 177.356 210.306C177.24 210.308 177.124 210.302 177.008 210.29C174.348 210.207 171.771 209.339 169.6 207.795C167.428 206.25 165.758 204.098 164.8 201.606C163.84 199.115 163.635 196.397 164.208 193.79C164.783 191.183 166.11 188.805 168.024 186.951C169.94 185.099 172.357 183.854 174.974 183.372C177.591 182.891 180.293 183.195 182.739 184.247C185.186 185.298 187.27 187.049 188.73 189.282C190.19 191.515 190.961 194.13 190.949 196.8Z" fill="#CCCCCC"/>
<path d="M175.686 268.381C183.159 268.421 189.245 262.377 189.281 254.881C189.317 247.384 183.288 241.274 175.816 241.233C168.343 241.194 162.257 247.238 162.221 254.735C162.185 262.232 168.214 268.341 175.686 268.381Z" fill="#CCCCCC"/>
<path d="M349.648 98.0221L321.834 97.8723C319.804 97.8614 317.861 97.0413 316.432 95.5938C315.003 94.1454 314.206 92.1875 314.215 90.1503L314.314 69.5407C314.314 69.4504 314.34 69.3621 314.388 69.2859C314.436 69.2097 314.505 69.1488 314.586 69.1099C314.667 69.0711 314.758 69.056 314.847 69.0663C314.936 69.0767 315.021 69.1121 315.091 69.1685L349.949 97.1667C350.027 97.2293 350.083 97.3147 350.111 97.41C350.137 97.5063 350.135 97.608 350.101 97.7015C350.068 97.796 350.007 97.8768 349.926 97.9349C349.844 97.9921 349.747 98.0221 349.648 98.0221Z" fill="#CCCCCC"/>
<path d="M190.949 196.8C190.94 198.582 190.582 200.346 189.895 201.99C189.208 203.633 188.204 205.125 186.942 206.379C185.681 207.633 184.184 208.626 182.539 209.3C180.894 209.973 179.133 210.315 177.356 210.306C177.24 210.308 177.124 210.302 177.008 210.29C175.281 205.907 174.63 201.171 175.109 196.485C175.588 191.797 177.184 187.295 179.763 183.357C182.907 183.915 185.755 185.57 187.801 188.03C189.848 190.49 190.963 193.597 190.949 196.8Z" fill="#429996"/>
<path d="M206.304 190.404C206.311 189.385 206.72 188.411 207.441 187.694C208.162 186.978 209.138 186.577 210.153 186.581L230.542 186.691C231.721 189.127 232.555 191.717 233.02 194.384L210.116 194.262C209.102 194.255 208.131 193.847 207.415 193.123C206.701 192.4 206.301 191.422 206.304 190.404Z" fill="#429996"/>
<path d="M233.468 199.67C233.457 202.264 233.103 204.845 232.415 207.345L210.055 207.225C209.04 207.219 208.067 206.81 207.354 206.085C206.639 205.361 206.24 204.382 206.246 203.364C206.25 202.346 206.658 201.371 207.379 200.655C208.101 199.938 209.076 199.539 210.091 199.545L233.468 199.67Z" fill="#429996"/>
</g>
</g>
<defs>
<filter id="filter0_i_9_2" x="-20.9442" y="-46.3069" width="404.691" height="440.793" filterUnits="userSpaceOnUse" color-interpolation-filters="sRGB">
<feFlood flood-opacity="0" result="BackgroundImageFix"/>
<feBlend mode="normal" in="SourceGraphic" in2="BackgroundImageFix" result="shape"/>
<feColorMatrix in="SourceAlpha" type="matrix" values="0 0 0 0 0 0 0 0 0 0 0 0 0 0 0 0 0 0 127 0" result="hardAlpha"/>
<feOffset dy="4"/>
<feGaussianBlur stdDeviation="2"/>
<feComposite in2="hardAlpha" operator="arithmetic" k2="-1" k3="1"/>
<feColorMatrix type="matrix" values="0 0 0 0 0 0 0 0 0 0 0 0 0 0 0 0 0 0 0.25 0"/>
<feBlend mode="normal" in2="shape" result="effect1_innerShadow_9_2"/>
</filter>
<clipPath id="clip0_9_2">
<rect width="356" height="336" fill="white"/>
</clipPath>
</defs>
</svg>
