<svg width="302" height="236" viewBox="0 0 302 236" fill="none" xmlns="http://www.w3.org/2000/svg">
<rect width="428" height="335" transform="translate(-67 -60)" fill="white"/>
<path d="M41.0368 192.985C46.9736 203.308 59.5736 207.74 59.5736 207.74C59.5736 207.74 62.5482 195.434 56.6114 185.111C50.6746 174.788 38.0746 170.356 38.0746 170.356C38.0746 170.356 35.1001 182.662 41.0368 192.985Z" fill="#2F2E41"/>
<path d="M45.1174 189.589C55.8358 195.635 59.9637 207.644 59.9637 207.644C59.9637 207.644 46.7138 209.851 35.9955 203.805C25.2771 197.759 21.1492 185.749 21.1492 185.749C21.1492 185.749 34.3991 183.543 45.1174 189.589Z" fill="#429996"/>
<path d="M177.571 5H176.616V13.2857H177.571V5Z" fill="#F2F2F2"/>
<path d="M206.71 5H205.754V13.2857H206.71V5Z" fill="#F2F2F2"/>
<path d="M287.335 17.045H220.46V17.9408H287.335V17.045Z" fill="#F2F2F2"/>
<path d="M239.567 8.9832H238.612V17.2689H239.567V8.9832Z" fill="#F2F2F2"/>
<path d="M268.705 8.9832H267.75V17.2689H268.705V8.9832Z" fill="#F2F2F2"/>
<path d="M308.353 124.984H241.478V125.879H308.353V124.984Z" fill="#F2F2F2"/>
<path d="M260.585 116.922H259.629V125.208H260.585V116.922Z" fill="#F2F2F2"/>
<path d="M289.723 116.922H288.768V125.208H289.723V116.922Z" fill="#F2F2F2"/>
<path d="M302.723 164.445H301.768V172.73H302.723V164.445Z" fill="#F2F2F2"/>
<path d="M194.097 188.258H80.9899V187.495H193.283V150.492H90.4985L85.5053 140.738L86.2391 140.408L91.0106 149.729H194.097V188.258Z" fill="#2F2E41"/>
<path d="M96.0437 206.951C100.762 206.951 104.588 203.364 104.588 198.94C104.588 194.515 100.762 190.929 96.0437 190.929C91.3249 190.929 87.4996 194.515 87.4996 198.94C87.4996 203.364 91.3249 206.951 96.0437 206.951Z" fill="#3F3D56"/>
<path d="M180.264 206.951C184.983 206.951 188.808 203.364 188.808 198.94C188.808 194.515 184.983 190.929 180.264 190.929C175.545 190.929 171.72 194.515 171.72 198.94C171.72 203.364 175.545 206.951 180.264 206.951Z" fill="#3F3D56"/>
<path d="M279.539 33.7589C282.46 33.7589 284.828 31.5386 284.828 28.7997C284.828 26.0608 282.46 23.8404 279.539 23.8404C276.617 23.8404 274.249 26.0608 274.249 28.7997C274.249 31.5386 276.617 33.7589 279.539 33.7589Z" fill="#3F3D56"/>
<path d="M206.195 137.903H79.0613L51.5527 53.5959H234.525L234.358 54.0919L206.195 137.903ZM79.6633 137.14H205.598L233.415 54.3588H52.6525L79.6633 137.14Z" fill="#2F2E41"/>
<path d="M196.271 133.516H84.6049L60.443 58.7457H221.154L221.007 59.1859L196.271 133.516Z" fill="#F2F2F2"/>
<path d="M236.804 46.064L236.018 45.8683L241.387 26.8922H272.622V27.6553H242.013L236.804 46.064Z" fill="#2F2E41"/>
<path d="M225.381 79.155H60.4422V79.9179H225.381V79.155Z" fill="#2F2E41"/>
<path d="M215.936 107.264H69.6139V108.027H215.936V107.264Z" fill="#2F2E41"/>
<path d="M143.443 53.9773H142.629V137.521H143.443V53.9773Z" fill="#2F2E41"/>
<path d="M179.875 53.9534L174.034 137.495L174.846 137.545L180.687 54.0033L179.875 53.9534Z" fill="#2F2E41"/>
<path d="M106.214 53.9525L105.402 54.0021L111.21 137.546L112.022 137.497L106.214 53.9525Z" fill="#2F2E41"/>
<path d="M116.804 31.825H49.9286V32.7207H116.804V31.825Z" fill="#F2F2F2"/>
<path d="M69.0357 23.7632H68.0804V32.0489H69.0357V23.7632Z" fill="#F2F2F2"/>
<path d="M98.1741 23.7632H97.2188V32.0489H98.1741V23.7632Z" fill="#F2F2F2"/>
<path d="M113.562 67.7029H46.6875V68.5987H113.562V67.7029Z" fill="#F2F2F2"/>
<path d="M95.4107 68.3748H94.4554V76.6605H95.4107V68.3748Z" fill="#F2F2F2"/>
<path d="M66.2723 68.3748H65.317V76.6605H66.2723V68.3748Z" fill="#F2F2F2"/>
<path d="M80.125 22.4672H13.25V23.363H80.125V22.4672Z" fill="#F2F2F2"/>
<path d="M32.3571 14.4054H31.4018V22.6912H32.3571V14.4054Z" fill="#F2F2F2"/>
<path d="M61.4955 14.4054H60.5402V22.6912H61.4955V14.4054Z" fill="#F2F2F2"/>
</svg>
